<svg width="890.21488" height="504.94824" xmlns="http://www.w3.org/2000/svg">

 <g>
  <title>Layer 1</title>
  <rect id="svg_1" fill="#fff" height="334.28522" width="514.52479" y="0.99996" x="374.69009"/>
  <path id="svg_2" fill="#e4e4e4" d="m890.21488,336.28512l-516.5249,0l0,-336.28512l516.5249,0l0,336.28512zm-514.5249,-2l512.5249,0l0,-332.28512l-512.5249,0l0,332.28512z"/>
  <path id="svg_3" fill="#3f3d56" d="m599.61707,33.69501c15.11286,0.25809 15.1105,22.73818 -0.00048,22.99407c-15.11238,-0.25808 -15.11001,-22.73817 0.00048,-22.99407z"/>
  <path id="svg_4" fill="#dc3545" d="m631.95249,33.69501c15.11286,0.25809 15.11049,22.73818 -0.00049,22.99407c-15.11237,-0.25808 -15.11,-22.73817 0.00049,-22.99407z"/>
  <path id="svg_5" fill="#cacaca" d="m664.28791,33.69501c15.11286,0.25809 15.11049,22.73818 -0.00049,22.99407c-15.11237,-0.25808 -15.10998,-22.73817 0.00049,-22.99407z"/>
  <rect id="svg_6" fill="#cacaca" height="1.24733" width="102.90499" y="121.72687" x="463.56257"/>
  <path id="svg_7" fill="#cacaca" d="m800.96608,302.59012l-141.57225,0l0,-132.21727l141.57225,0l0,132.21727zm-140.325,-1.24733l139.07762,0l0,-129.72261l-139.07753,0l-0.00009,129.72261z"/>
  <rect id="svg_8" transform="rotate(-46.9749 -191.005 587.386)" fill="#cacaca" height="191.94847" width="1.24771" y="925.41938" x="693.4437"/>
  <rect id="svg_9" transform="rotate(-43.0223 -213.002 523.054)" fill="#cacaca" height="1.24771" width="191.94845" y="956.43794" x="576.09652"/>
  <path id="svg_10" fill="#cacaca" d="m800.96608,104.26422l-338.02719,0l0,-23.07567l338.02719,0l0,23.07567zm-336.77985,-1.24733l335.53255,0l0,-20.581l-335.53255,0l0,20.581z"/>
  <path id="svg_11" fill="#cacaca" d="m587.96608,206.26422l-124.02719,0l0,-23.07567l124.02719,0l0,23.07567zm-122.77985,-1.24733l121.53255,0l0,-20.581l-121.53255,0l0,20.581z"/>
  <path id="svg_12" fill="#cacaca" d="m587.96608,245.26422l-124.02719,0l0,-23.07567l124.02719,0l0,23.07567zm-122.77985,-1.24733l121.53255,0l0,-20.581l-121.53255,0l0,20.581z"/>
  <path id="svg_13" fill="#cacaca" d="m587.96608,284.26422l-124.02719,0l0,-23.07567l124.02719,0l0,23.07567zm-122.77985,-1.24733l121.53255,0l0,-20.581l-121.53255,0l0,20.581z"/>
  <path id="svg_14" fill="#dc3545" d="m496.41991,150.32017l-33.26514,0c2.56789,-10.33416 2.25807,-21.51354 0,-33.26514l33.26514,0a41.35224,41.35224 0 0 0 0,33.26514z"/>
  <rect id="svg_15" fill="#fff" height="4.03214" width="20.16068" y="124.11127" x="468.1949"/>
  <rect id="svg_16" fill="#fff" height="4.03214" width="20.16068" y="132.17553" x="468.1949"/>
  <rect id="svg_17" fill="#fff" height="4.03214" width="20.16068" y="140.23982" x="468.1949"/>
  <path id="svg_18" fill="#dc3545" d="m746.92676,200.55731l-33.26514,0c2.56789,-10.33415 2.25808,-21.51353 0,-33.26513l33.26514,0a41.35222,41.35222 0 0 0 0,33.26513z"/>
  <rect id="svg_19" fill="#fff" height="4.03214" width="20.16068" y="174.34841" x="718.70176"/>
  <rect id="svg_20" fill="#fff" height="4.03214" width="20.16068" y="182.41268" x="718.70176"/>
  <rect id="svg_21" fill="#fff" height="4.03214" width="20.16068" y="190.47695" x="718.70176"/>
  <path id="svg_22" fill="#dc3545" d="m789.69618,129.27488l-33.26513,0c2.56788,-10.33416 2.25807,-21.51354 0,-33.26514l33.26513,0a41.35257,41.35257 0 0 0 0,33.26514z"/>
  <rect id="svg_23" fill="#fff" height="4.03214" width="20.16068" y="103.06598" x="761.47122"/>
  <rect id="svg_24" fill="#fff" height="4.03214" width="20.16068" y="111.13024" x="761.47122"/>
  <rect id="svg_25" fill="#fff" height="4.03214" width="20.16068" y="119.19453" x="761.47122"/>
  <path id="svg_26" fill="#fcfcfc" d="m206.59844,153.44824l-57,0l0,-30.5a28.5,28.5 0 0 1 57,0l0,30.5z"/>
  <polygon id="svg_27" fill="#ffb6b6" points="232.043 492.792 244.302 492.792 250.135 445.504 232.041 445.505 232.043 492.792"/>
  <path id="svg_28" fill="#efefef" d="m228.91536,488.78951l24.144,-0.001l0.001,0a15.38728,15.38728 0 0 1 15.38648,15.38623l0,0.5l-39.53076,0.00146l-0.00072,-15.88669z"/>
  <polygon id="svg_29" fill="#ffb6b6" points="85.489 476.431 96.165 482.458 124.493 444.147 108.736 435.252 85.489 476.431"/>
  <path id="svg_30" fill="#efefef" d="m84.73389,471.40825l21.02514,11.86922l0.00085,0.00048a15.38731,15.38731 0 0 1 5.83414,20.96288l-0.24582,0.4354l-34.42415,-19.43345l7.80984,-13.83453z"/>
  <path id="svg_31" fill="#ffffff" d="m163.84264,280.1208l-0.94608,4.73044s-2.83825,2.83825 -1.41913,4.25738s0.94609,8.04172 0.94609,8.04172c-0.7937,12.07594 -16.57267,79.93554 -19.39476,93.18936c0,0 -21.76,14.19128 -38.78949,42.10077s-17.50256,35.00513 -17.50256,35.00513l18.92169,8.04174l47.30425,-57.23815s13.24519,-8.04175 17.97561,-15.13739s34.05907,-80.41724 34.05907,-80.41724l16.55649,76.63287s-0.94608,27.90949 3.31131,45.88513a192.52086,192.52086 0 0 1 4.73041,34.53211l22.233,-2.36524s-1.41913,-67.172 -3.78433,-74.2677c0,0 9.9339,-81.83636 -9.9339,-114.47628l-16.01187,-42.68721l-15.682,-6.03618l-42.5738,40.20874z"/>
  <path id="svg_32" fill="#ffb8b8" d="m177.80607,101.90379c29.84706,0.50973 29.84238,44.90667 -0.001,45.412c-29.84607,-0.50967 -29.84139,-44.90659 0.001,-45.412z"/>
  <path id="svg_33" fill="#ffffff" d="m200.77518,123.43164l-5.07251,0l-1.38134,-3.45361l0.69067,3.45361l-27.74414,0l0.90283,-7.22656l-6.74414,7.22656l-6.72729,0l0,-3.916a23.038,23.038 0 1 1 46.07592,0l0,3.916z"/>
  <path id="svg_34" fill="#e4e4e4" d="m208.58184,160.57862l-56.40467,0.45658l11.92126,120.913s65.95917,-3.48105 66,-23.61394l-6.17935,-17.89091l-15.33724,-79.86473z"/>
  <path fill="#fff" d="m313.5528,371.55957l-196.62136,40.71755c-2.01069,0.41105 -4.3295,-2.58308 -5.18388,-6.69591l-20.66643,-99.79626c-0.85164,-4.11253 0.09011,-7.78095 2.09833,-8.204l196.62132,-40.71755c2.01069,-0.411 4.32951,2.58308 5.18388,6.6959l20.66625,99.79538c0.84912,4.1131 -0.09217,7.7841 -2.09811,8.20489z" id="a921541c-c001-4299-8f7c-75c007cac120"/>
  <g id="a63949a2-a794-48d0-a35a-8c12e4616a27">
   <circle fill="#f0f0f0" r="17.55831" cy="323.99779" cx="164.59544" id="bdfdee77-367c-420e-9119-e33862087a46"/>
   <path fill="#e4e4e4" d="m229.48444,365.81512l-84.34547,17.46678a1.76273,1.76273 0 0 1 -0.32015,0.03954l25.58424,-77.35792a2.85168,2.85168 0 0 1 4.862,-1.00684l36.37438,40.82537l1.74268,1.95262l16.10232,18.08045z" id="f21c0c69-10dc-4e04-b124-1a0d4dcadc3b"/>
   <path fill="#e4e4e4" d="m276.44529,356.09102l-72.95246,15.10745l9.88384,-23.46l0.71089,-1.68986l12.87976,-30.57392a3.80656,3.80656 0 0 1 5.46857,-1.47684a3.39828,3.39828 0 0 1 0.33359,0.2753l43.67581,41.81787z" id="a63814cd-9c0a-4ddf-af41-edb1ac5f3322"/>
  </g>
  <path fill="#cacaca" d="m313.5528,371.55957l-196.62136,40.71755c-2.01069,0.41105 -4.3295,-2.58308 -5.18388,-6.69591l-20.66643,-99.79626c-0.85164,-4.11253 0.09011,-7.78095 2.09833,-8.204l196.62132,-40.71755c2.01069,-0.411 4.32951,2.58308 5.18388,6.6959l20.66625,99.79538c0.84912,4.1131 -0.09217,7.7841 -2.09811,8.20489zm-219.75624,-70.99879c-1.20627,0.2498 -1.76856,2.45492 -1.25933,4.92259l20.66621,99.79543c0.51095,2.46732 1.90387,4.26487 3.11072,4.01762l196.62133,-40.71756c1.20627,-0.2498 1.76873,-2.45409 1.25933,-4.92259l-20.66624,-99.79538c-0.51095,-2.46732 -1.90387,-4.26487 -3.11073,-4.01762l-196.62129,40.71751z" id="e00a8b63-2679-46d7-8caf-93b6261f662d"/>
  <path id="svg_35" fill="#ffb6b6" d="m255.3802,279.1897a9.37695,9.37695 0 0 1 -3.67316,-13.90137l-11.42228,-18.12982l9.32448,-9.62842l15.77087,25.82937a9.42779,9.42779 0 0 1 -9.99991,15.83024z"/>
  <path id="svg_36" fill="#e4e4e4" d="m199.9153,165.34061l8.18313,-5.39237s6.31465,1.41565 13.0311,14.33421s33.80113,70.67167 33.80113,70.67167l-11.13274,11.3028l-29.69948,-45.30868l-14.18314,-45.60763z"/>
  <path id="svg_37" fill="#ffb6b6" d="m149.76309,293.63744a9.377,9.377 0 0 0 -2.70495,-14.12174l2.45085,-21.28737l-12.573,-4.6445l-3.03886,30.1105a9.42779,9.42779 0 0 0 15.866,9.94311l-0.00004,0z"/>
  <path id="svg_38" fill="#e4e4e4" d="m159.59844,171.44824l-7.42126,-10.3728s-5.07874,-1.1272 -11.07874,5.8728s-9.5,94.5 -9.5,94.5l22,5l13,-62l-7,-33z"/>
  <path id="svg_39" fill="#cacaca" d="m382,504.94824l-381,0a1,1 0 0 1 0,-2l381,0a1,1 0 0 1 0,2z"/>
  <path id="svg_40" fill="#dc3545" d="m136.85425,323.9999l-32.53981,6.90889c0.36558,-10.64214 -2.25935,-21.5134 -6.90889,-32.53977l32.53977,-6.90889a41.35261,41.35261 0 0 0 6.90893,32.53977z"/>
  <rect id="svg_41" transform="rotate(-11.9871 -253.212 -130.724)" fill="#fff" height="4.03214" width="20.16068" y="368.88883" x="5.68132"/>
  <rect id="svg_42" transform="rotate(-11.9871 -254.813 -130.204)" fill="#fff" height="4.03214" width="20.16068" y="377.29712" x="5.75436"/>
  <rect id="svg_43" transform="rotate(-11.9871 -256.415 -129.684)" fill="#fff" height="4.03214" width="20.16068" y="385.70543" x="5.8274"/>
 </g>
</svg>